<svg width="48" height="48" viewBox="0 0 48 48" fill="none" xmlns="http://www.w3.org/2000/svg">
<path d="M1.5 46.5L4.72865 34.5058C2.12482 29.8334 1.29756 24.3812 2.39867 19.1495C3.49977 13.9179 6.45539 9.25778 10.7231 6.02434C14.9909 2.7909 20.2845 1.20102 25.6327 1.54645C30.9808 1.89188 36.0246 4.14944 39.8387 7.90488C43.6527 11.6603 45.9811 16.6617 46.3966 21.9913C46.8121 27.3209 45.2868 32.6212 42.1006 36.9196C38.9144 41.218 34.2811 44.2261 29.0508 45.392C23.8205 46.5579 18.3441 45.8034 13.6265 43.2669L1.5 46.5ZM14.2112 38.7786L14.9612 39.2223C18.3782 41.2425 22.3693 42.0785 26.3124 41.6C30.2555 41.1215 33.9291 39.3554 36.7609 36.5769C39.5926 33.7985 41.4234 30.1637 41.9678 26.239C42.5123 22.3143 41.7399 18.3202 39.771 14.8791C37.802 11.438 34.7472 8.74324 31.0825 7.2147C27.4179 5.68617 23.3492 5.40974 19.5106 6.4285C15.6719 7.44727 12.279 9.70399 9.86047 12.847C7.44194 15.99 6.13369 19.8427 6.13959 23.8048C6.13638 27.09 7.04725 30.3116 8.77081 33.1111L9.24113 33.8845L7.43613 40.579L14.2112 38.7786Z" fill="#00D95F"/>
<path fill-rule="evenodd" clip-rule="evenodd" d="M32.4133 26.885C31.9737 26.5313 31.4589 26.2824 30.9082 26.1571C30.3575 26.0319 29.7854 26.0337 29.2355 26.1623C28.4093 26.5047 27.8754 27.7979 27.3415 28.4445C27.229 28.5995 27.0635 28.7082 26.8763 28.7503C26.6891 28.7923 26.4929 28.7647 26.3246 28.6727C23.2998 27.491 20.7643 25.3239 19.1301 22.5235C18.9907 22.3487 18.9247 22.1268 18.9461 21.9045C18.9674 21.6822 19.0744 21.4769 19.2445 21.3317C19.8399 20.7437 20.2771 20.0155 20.5156 19.2143C20.5686 18.3306 20.3656 17.4503 19.9309 16.6785C19.5948 15.5965 18.9553 14.6329 18.0878 13.9019C17.6403 13.7011 17.1442 13.6338 16.6593 13.7081C16.1744 13.7823 15.7214 13.9949 15.3549 14.3203C14.7186 14.8678 14.2136 15.5507 13.8771 16.3187C13.5405 17.0867 13.3809 17.9202 13.4101 18.7579C13.412 19.2283 13.4718 19.6966 13.588 20.1525C13.8832 21.2479 14.3371 22.2943 14.9354 23.2589C15.3671 23.9977 15.8381 24.713 16.3463 25.4016C17.9982 27.6635 20.0747 29.5839 22.4604 31.0564C23.6576 31.8046 24.9372 32.413 26.2738 32.8694C27.6623 33.4972 29.1953 33.7382 30.71 33.5668C31.5731 33.4365 32.3908 33.0966 33.0912 32.577C33.7916 32.0575 34.3533 31.3742 34.7268 30.5872C34.9462 30.1119 35.0128 29.5804 34.9174 29.0658C34.6886 28.0134 33.2777 27.3922 32.4133 26.885Z" fill="#00D95F"/>
</svg>
