<svg width="48" height="48" viewBox="0 0 48 48" fill="none" xmlns="http://www.w3.org/2000/svg">
<path d="M19.4497 22.6467C19.4497 22.6467 23.709 22.323 23.709 17.2265C23.709 12.1343 20.8202 9.62402 16.4047 9.62402L1.27847 9.6001V37.742H16.7565C16.7565 37.742 24.4955 37.9868 24.4955 29.2994C24.4955 29.2994 25.064 22.6467 19.4497 22.6467ZM6.90685 13.8214H14.6459C14.6459 13.8214 17.294 13.865 17.294 17.2983C17.294 20.8568 14.6459 20.8568 14.6459 20.8568H6.90685V13.8214ZM15.3494 33.5207H6.90685V25.0781H15.3494C15.3494 25.0781 19.5707 25.1217 19.5707 29.2994C19.5707 33.4771 15.9573 33.5207 15.3494 33.5207Z" fill="#111111"/>
<path d="M36.4561 16.6362C25.8846 16.6362 25.9029 27.1894 25.9029 27.1894C25.9029 27.1894 25.1994 37.7426 36.4561 37.7426C36.4561 37.7426 46.3058 37.7426 46.3058 29.3001H40.6774C40.6774 29.3001 40.6774 33.5214 36.4561 33.5214C36.4561 33.5214 32.2348 33.5214 32.2348 27.893C32.2348 27.893 43.4916 27.893 46.3058 27.893C46.3058 25.0788 46.3058 16.6362 36.4561 16.6362ZM32.2348 25.0788C32.2348 25.0788 32.142 20.8575 36.4561 20.8575C40.7689 20.8575 40.6774 25.0788 40.6774 25.0788H32.2348Z" fill="#111111"/>
<path d="M42.0849 12.4146H30.8281V15.2287H42.0849V12.4146Z" fill="#111111"/>
</svg>
