<svg width="50" height="50" viewBox="0 0 50 50" fill="none" xmlns="http://www.w3.org/2000/svg">
<path d="M16.5851 24.9993C16.5851 20.4756 20.2535 16.8075 24.7799 16.8075C29.3063 16.8075 32.9767 20.4756 32.9767 24.9993C32.9767 29.523 29.3063 33.1912 24.7799 33.1912C20.2535 33.1912 16.5851 29.523 16.5851 24.9993ZM12.1541 24.9993C12.1541 31.9684 17.8067 37.6176 24.7799 37.6176C31.7532 37.6176 37.4057 31.9684 37.4057 24.9993C37.4057 18.0303 31.7532 12.3811 24.7799 12.3811C17.8067 12.3811 12.1541 18.0303 12.1541 24.9993ZM34.955 11.8808C34.9547 12.464 35.1276 13.0342 35.4516 13.5193C35.7756 14.0043 36.2363 14.3825 36.7753 14.6059C37.3144 14.8293 37.9076 14.8879 38.48 14.7744C39.0524 14.6608 39.5783 14.3802 39.9911 13.9679C40.4039 13.5557 40.6852 13.0304 40.7992 12.4584C40.9133 11.8865 40.8551 11.2935 40.632 10.7546C40.4089 10.2157 40.0309 9.75499 39.5458 9.43077C39.0607 9.10656 38.4903 8.93338 37.9067 8.93315H37.9056C37.1233 8.93351 36.3732 9.24415 35.82 9.79683C35.2668 10.3495 34.9557 11.099 34.955 11.8808ZM14.8463 45.0016C12.449 44.8925 11.146 44.4935 10.2801 44.1563C9.13213 43.7097 8.31304 43.1777 7.45186 42.3182C6.59068 41.4587 6.05761 40.6409 5.61266 39.4936C5.27511 38.6286 4.8758 37.326 4.76682 34.9302C4.64762 32.34 4.62381 31.5619 4.62381 24.9995C4.62381 18.4372 4.64958 17.6613 4.76682 15.0689C4.87599 12.673 5.27826 11.373 5.61266 10.5055C6.05957 9.35817 6.59186 8.53958 7.45186 7.67892C8.31186 6.81825 9.13016 6.2855 10.2801 5.84081C11.1456 5.50347 12.449 5.10439 14.8463 4.99548C17.4381 4.87635 18.2166 4.85256 24.7799 4.85256C31.3432 4.85256 32.1226 4.87831 34.7166 4.99548C37.1138 5.10459 38.4146 5.50661 39.2827 5.84081C40.4307 6.2855 41.2498 6.81943 42.111 7.67892C42.9721 8.5384 43.5032 9.35817 43.9502 10.5055C44.2877 11.3705 44.687 12.673 44.796 15.0689C44.9152 17.6613 44.939 18.4372 44.939 24.9995C44.939 31.5619 44.9152 32.3378 44.796 34.9302C44.6868 37.326 44.2855 38.6282 43.9502 39.4936C43.5032 40.6409 42.971 41.4595 42.111 42.3182C41.251 43.1769 40.4307 43.7097 39.2827 44.1563C38.4172 44.4937 37.1138 44.8927 34.7166 45.0016C32.1248 45.1208 31.3462 45.1446 24.7799 45.1446C18.2137 45.1446 17.4373 45.1208 14.8463 45.0016ZM14.6427 0.574599C12.0251 0.693731 10.2364 1.10853 8.67439 1.71599C7.05668 2.34331 5.68721 3.1849 4.31872 4.55041C2.95024 5.91591 2.1103 7.28672 1.48261 8.90346C0.874785 10.4656 0.459735 12.2522 0.34053 14.8682C0.219359 17.4883 0.191624 18.326 0.191624 24.9993C0.191624 31.6727 0.219359 32.5104 0.34053 35.1305C0.459735 37.7467 0.874785 39.5331 1.48261 41.0952C2.1103 42.711 2.95043 44.0834 4.31872 45.4483C5.68701 46.8132 7.05668 47.6536 8.67439 48.2827C10.2394 48.8902 12.0251 49.305 14.6427 49.4241C17.2657 49.5432 18.1025 49.5729 24.7799 49.5729C31.4573 49.5729 32.2955 49.5452 34.9172 49.4241C37.535 49.305 39.3224 48.8902 40.8855 48.2827C42.5022 47.6536 43.8727 46.8138 45.2411 45.4483C46.6096 44.0828 47.4478 42.711 48.0773 41.0952C48.6851 39.5331 49.1021 37.7465 49.2193 35.1305C49.3385 32.5084 49.3663 31.6727 49.3663 24.9993C49.3663 18.326 49.3385 17.4883 49.2193 14.8682C49.1001 12.252 48.6851 10.4646 48.0773 8.90346C47.4478 7.2877 46.6075 5.91807 45.2411 4.55041C43.8748 3.18274 42.5022 2.34331 40.8874 1.71599C39.3224 1.10853 37.5348 0.691766 34.9192 0.574599C32.2975 0.455466 31.4593 0.425781 24.7819 0.425781C18.1045 0.425781 17.2657 0.4535 14.6427 0.574599Z" fill="url(#paint0_radial_9_24)"/>
<path d="M16.5851 24.9993C16.5851 20.4756 20.2535 16.8075 24.7799 16.8075C29.3063 16.8075 32.9767 20.4756 32.9767 24.9993C32.9767 29.523 29.3063 33.1912 24.7799 33.1912C20.2535 33.1912 16.5851 29.523 16.5851 24.9993ZM12.1541 24.9993C12.1541 31.9684 17.8067 37.6176 24.7799 37.6176C31.7532 37.6176 37.4057 31.9684 37.4057 24.9993C37.4057 18.0303 31.7532 12.3811 24.7799 12.3811C17.8067 12.3811 12.1541 18.0303 12.1541 24.9993ZM34.955 11.8808C34.9547 12.464 35.1276 13.0342 35.4516 13.5193C35.7756 14.0043 36.2363 14.3825 36.7753 14.6059C37.3144 14.8293 37.9076 14.8879 38.48 14.7744C39.0524 14.6608 39.5783 14.3802 39.9911 13.9679C40.4039 13.5557 40.6852 13.0304 40.7992 12.4584C40.9133 11.8865 40.8551 11.2935 40.632 10.7546C40.4089 10.2157 40.0309 9.75499 39.5458 9.43077C39.0607 9.10656 38.4903 8.93338 37.9067 8.93315H37.9056C37.1233 8.93351 36.3732 9.24415 35.82 9.79683C35.2668 10.3495 34.9557 11.099 34.955 11.8808ZM14.8463 45.0016C12.449 44.8925 11.146 44.4935 10.2801 44.1563C9.13213 43.7097 8.31304 43.1777 7.45186 42.3182C6.59068 41.4587 6.05761 40.6409 5.61266 39.4936C5.27511 38.6286 4.8758 37.326 4.76682 34.9302C4.64762 32.34 4.62381 31.5619 4.62381 24.9995C4.62381 18.4372 4.64958 17.6613 4.76682 15.0689C4.87599 12.673 5.27826 11.373 5.61266 10.5055C6.05957 9.35817 6.59186 8.53958 7.45186 7.67892C8.31186 6.81825 9.13016 6.2855 10.2801 5.84081C11.1456 5.50347 12.449 5.10439 14.8463 4.99548C17.4381 4.87635 18.2166 4.85256 24.7799 4.85256C31.3432 4.85256 32.1226 4.87831 34.7166 4.99548C37.1138 5.10459 38.4146 5.50661 39.2827 5.84081C40.4307 6.2855 41.2498 6.81943 42.111 7.67892C42.9721 8.5384 43.5032 9.35817 43.9502 10.5055C44.2877 11.3705 44.687 12.673 44.796 15.0689C44.9152 17.6613 44.939 18.4372 44.939 24.9995C44.939 31.5619 44.9152 32.3378 44.796 34.9302C44.6868 37.326 44.2855 38.6282 43.9502 39.4936C43.5032 40.6409 42.971 41.4595 42.111 42.3182C41.251 43.1769 40.4307 43.7097 39.2827 44.1563C38.4172 44.4937 37.1138 44.8927 34.7166 45.0016C32.1248 45.1208 31.3462 45.1446 24.7799 45.1446C18.2137 45.1446 17.4373 45.1208 14.8463 45.0016ZM14.6427 0.574599C12.0251 0.693731 10.2364 1.10853 8.67439 1.71599C7.05668 2.34331 5.68721 3.1849 4.31872 4.55041C2.95024 5.91591 2.1103 7.28672 1.48261 8.90346C0.874785 10.4656 0.459735 12.2522 0.34053 14.8682C0.219359 17.4883 0.191624 18.326 0.191624 24.9993C0.191624 31.6727 0.219359 32.5104 0.34053 35.1305C0.459735 37.7467 0.874785 39.5331 1.48261 41.0952C2.1103 42.711 2.95043 44.0834 4.31872 45.4483C5.68701 46.8132 7.05668 47.6536 8.67439 48.2827C10.2394 48.8902 12.0251 49.305 14.6427 49.4241C17.2657 49.5432 18.1025 49.5729 24.7799 49.5729C31.4573 49.5729 32.2955 49.5452 34.9172 49.4241C37.535 49.305 39.3224 48.8902 40.8855 48.2827C42.5022 47.6536 43.8727 46.8138 45.2411 45.4483C46.6096 44.0828 47.4478 42.711 48.0773 41.0952C48.6851 39.5331 49.1021 37.7465 49.2193 35.1305C49.3385 32.5084 49.3663 31.6727 49.3663 24.9993C49.3663 18.326 49.3385 17.4883 49.2193 14.8682C49.1001 12.252 48.6851 10.4646 48.0773 8.90346C47.4478 7.2877 46.6075 5.91807 45.2411 4.55041C43.8748 3.18274 42.5022 2.34331 40.8874 1.71599C39.3224 1.10853 37.5348 0.691766 34.9192 0.574599C32.2975 0.455466 31.4593 0.425781 24.7819 0.425781C18.1045 0.425781 17.2657 0.4535 14.6427 0.574599Z" fill="url(#paint1_radial_9_24)"/>
<defs>
<radialGradient id="paint0_radial_9_24" cx="0" cy="0" r="1" gradientUnits="userSpaceOnUse" gradientTransform="translate(6.72503 49.8051) scale(64.1959 64.1575)">
<stop offset="0.09" stop-color="#FA8F21"/>
<stop offset="0.78" stop-color="#D82D7E"/>
</radialGradient>
<radialGradient id="paint1_radial_9_24" cx="0" cy="0" r="1" gradientUnits="userSpaceOnUse" gradientTransform="translate(30.0151 52.0069) scale(50.5953 50.5649)">
<stop offset="0.64" stop-color="#8C3AAA" stop-opacity="0"/>
<stop offset="1" stop-color="#8C3AAA"/>
</radialGradient>
</defs>
</svg>
