<svg width="48" height="48" viewBox="0 0 48 48" fill="none" xmlns="http://www.w3.org/2000/svg">
<path d="M0 3.43837C0 1.5405 1.58888 0 3.5475 0H44.4525C46.4119 0 48 1.5405 48 3.43837V44.5622C48 46.4606 46.4119 48 44.4525 48H3.5475C1.58906 48 0 46.4608 0 44.5628V3.43781V3.43837Z" fill="#006699"/>
<path d="M14.5863 40.1699V18.5602H7.40352V40.1699H14.587H14.5863ZM10.9964 15.6103C13.5006 15.6103 15.0597 13.9509 15.0597 11.8771C15.0128 9.75613 13.5006 8.14307 11.044 8.14307C8.58571 8.14307 6.98015 9.75613 6.98015 11.8769C6.98015 13.9507 8.53865 15.6101 10.9493 15.6101H10.9958L10.9964 15.6103ZM18.562 40.1699H25.7442V28.1034C25.7442 27.4584 25.7911 26.8117 25.9808 26.351C26.4998 25.0601 27.6817 23.7238 29.6663 23.7238C32.2647 23.7238 33.3048 25.7053 33.3048 28.6106V40.1699H40.4868V27.7796C40.4868 21.1423 36.9438 18.0536 32.2182 18.0536C28.3439 18.0536 26.6423 20.219 25.697 21.6939H25.7448V18.5609H18.5624C18.6561 20.5882 18.5618 40.1707 18.5618 40.1707L18.562 40.1699Z" fill="white"/>
</svg>
